<?xml version="1.0" standalone="no"?>
<!DOCTYPE svg PUBLIC "-//W3C//DTD SVG 20010904//EN"
 "http://www.w3.org/TR/2001/REC-SVG-20010904/DTD/svg10.dtd">
<svg version="1.0" xmlns="http://www.w3.org/2000/svg"
 width="256.000000pt" height="255.000000pt" viewBox="0 0 256.000000 255.000000"
 preserveAspectRatio="xMidYMid meet">

<g transform="translate(0.000000,255.000000) scale(0.100000,-0.100000)"
fill="#000000" stroke="none">
<path d="M1645 2469 c-49 -10 -113 -23 -140 -28 -97 -17 -211 -69 -268 -121
-112 -102 -163 -269 -126 -415 9 -36 8 -52 -4 -83 -9 -21 -23 -92 -33 -157
-19 -132 -12 -213 27 -348 11 -38 18 -71 15 -74 -3 -3 -41 21 -84 53 -70 52
-83 66 -107 121 -37 85 -110 153 -222 205 -163 76 -257 66 -501 -53 -134 -66
-161 -83 -152 -94 7 -8 22 -17 33 -21 12 -3 63 -25 112 -49 50 -24 137 -63
195 -87 100 -41 111 -43 222 -46 108 -3 122 -2 204 27 l88 30 36 -21 c98 -60
210 -171 250 -246 18 -35 4 -39 -29 -8 -45 44 -118 65 -244 72 -147 9 -228 -5
-339 -59 -48 -23 -87 -47 -87 -53 -1 -15 21 -34 39 -34 9 0 43 -17 76 -38 96
-62 208 -121 269 -142 84 -29 229 -29 318 0 38 12 71 19 74 16 12 -11 41 -113
48 -163 8 -58 -11 -147 -46 -215 -12 -23 -53 -79 -91 -124 -58 -70 -80 -88
-141 -117 -120 -59 -156 -67 -246 -60 -113 8 -215 58 -250 121 -50 92 -17 202
72 243 53 23 81 23 134 0 44 -21 60 -49 44 -79 -18 -34 -43 -47 -89 -47 -32 0
-48 -5 -56 -18 -25 -39 64 -51 121 -16 41 26 75 89 71 132 -6 58 -102 98 -197
82 -134 -23 -210 -187 -147 -320 47 -99 110 -132 278 -141 103 -6 122 -4 184
16 147 48 207 95 330 255 69 90 154 293 259 615 79 244 108 322 123 327 7 3
38 -4 70 -15 100 -36 160 -45 257 -39 116 7 253 51 349 113 38 24 73 44 78 44
4 0 8 8 8 18 0 9 -23 32 -50 50 l-49 33 30 42 c39 56 46 96 22 126 -16 20 -35
25 -114 35 l-94 12 -3 67 c-3 61 -5 67 -27 73 -13 3 -40 1 -59 -6 -20 -6 -39
-9 -44 -6 -5 3 -23 35 -41 71 -22 44 -39 67 -55 71 -30 7 -124 -29 -160 -63
-27 -24 -31 -25 -60 -14 -72 30 -84 28 -139 -30 -29 -30 -67 -84 -86 -121 -32
-64 -34 -72 -28 -144 5 -66 11 -84 48 -145 23 -38 58 -83 77 -99 l36 -29 -26
-53 c-14 -29 -30 -69 -36 -88 -46 -144 -164 -502 -177 -533 -21 -51 -35 -47
-35 11 0 98 -54 265 -122 382 -21 36 -52 110 -68 165 -17 55 -35 114 -40 130
-6 17 -15 70 -21 118 -13 101 -1 217 35 327 l21 65 50 6 c99 12 190 59 287
149 62 57 108 138 163 288 15 41 43 93 61 118 19 24 34 46 34 49 0 7 -12 5
-115 -16z m24 -51 c-8 -5 -36 -21 -64 -35 -27 -14 -45 -28 -38 -30 7 -2 21 0
32 6 37 20 39 11 14 -71 -44 -144 -87 -206 -196 -280 -88 -60 -217 -99 -217
-65 1 50 198 271 318 355 34 25 44 49 15 37 -10 -3 -54 -34 -98 -67 -84 -65
-164 -151 -228 -246 -21 -31 -43 -58 -48 -60 -5 -2 -9 34 -9 81 0 73 4 91 30
144 39 77 89 127 167 164 67 32 197 69 247 70 17 0 40 4 51 8 25 10 42 2 24
-11z m263 -485 c9 -10 19 -37 23 -59 l6 -42 -46 -17 -46 -18 -34 33 c-19 19
-35 39 -35 45 0 14 80 73 101 74 9 1 23 -7 31 -16z m-201 -86 c34 -24 68 -52
76 -64 13 -19 9 -24 -47 -73 -34 -29 -68 -66 -76 -81 -24 -47 -38 -36 -31 26
3 30 2 55 -3 55 -19 0 -31 -44 -32 -116 0 -41 -4 -72 -8 -69 -18 11 -42 107
-35 142 5 27 3 34 -7 31 -23 -8 -33 -55 -22 -108 12 -57 3 -66 -17 -18 -31 76
-10 161 69 280 32 50 54 49 133 -5z m389 -107 c0 -89 -23 -166 -72 -238 -33
-48 -121 -122 -146 -122 -13 0 -12 3 4 15 18 14 18 14 -6 14 -14 0 -42 -3 -62
-8 -20 -5 -39 -7 -42 -4 -7 7 46 50 143 118 47 32 80 60 74 62 -5 2 -59 -25
-119 -61 -115 -67 -154 -84 -154 -67 0 28 47 107 99 163 13 15 22 31 18 34 -3
3 -43 -31 -88 -75 -45 -45 -84 -79 -86 -77 -2 2 6 29 18 61 16 42 37 73 78
112 61 58 177 123 221 123 15 0 43 7 61 15 57 24 59 23 59 -65z m221 -96 c10
-28 -5 -67 -39 -97 -17 -16 -26 -17 -59 -8 -21 6 -55 11 -76 11 -35 0 -38 2
-31 23 33 104 34 104 135 99 53 -3 61 -7 70 -28z m-1716 -28 c68 -18 109 -40
161 -88 45 -41 90 -105 81 -114 -2 -3 -58 12 -123 32 -143 44 -319 73 -336 56
-9 -9 -5 -12 17 -12 16 0 36 -6 44 -13 9 -8 43 -19 76 -26 74 -16 245 -68 265
-81 13 -9 13 -11 0 -20 -34 -23 -102 -34 -210 -34 l-115 0 -129 53 c-149 62
-221 100 -209 111 21 20 234 122 278 135 65 17 138 18 200 1z m1634 -131 c45
-15 101 -51 101 -64 0 -15 -127 -82 -193 -102 -90 -27 -176 -40 -194 -30 -10
5 12 14 64 25 127 29 185 44 191 50 12 12 -5 15 -39 7 -106 -27 -158 -19 -79
13 22 9 40 20 40 26 0 13 3 13 -75 -11 -37 -11 -70 -18 -73 -14 -4 4 19 31 50
61 54 52 58 54 111 54 30 0 73 -7 96 -15z m-1277 -411 c105 -18 163 -46 204
-99 15 -20 25 -38 22 -40 -2 -3 -27 4 -55 15 -93 35 -233 58 -366 61 -70 1
-129 0 -132 -3 -3 -3 45 -11 107 -17 163 -17 274 -42 363 -81 22 -9 48 -20 58
-24 59 -20 -52 -65 -163 -65 -124 -1 -198 26 -362 131 -43 28 -78 52 -78 53 0
13 103 58 157 69 93 19 138 19 245 0z"/>
</g>
</svg>
